<mxfile host="Electron" modified="2024-02-10T17:16:40.518Z" agent="Mozilla/5.0 (Windows NT 10.0; Win64; x64) AppleWebKit/537.36 (KHTML, like Gecko) draw.io/22.1.2 Chrome/114.0.5735.289 Electron/25.9.4 Safari/537.36" etag="uHSVbuTFlvGrjwAZEY7D" version="22.1.2" type="device">
  <diagram name="Страница — 1" id="PEXk8JzWp22X_gasQ6LK">
    <mxGraphModel dx="958" dy="700" grid="1" gridSize="10" guides="1" tooltips="1" connect="1" arrows="1" fold="1" page="1" pageScale="1" pageWidth="827" pageHeight="1169" math="0" shadow="0">
      <root>
        <mxCell id="0" />
        <mxCell id="1" parent="0" />
        <mxCell id="wCVo80VKMC9zGzPq1CvK-1" value="Сравниваем работу &lt;b&gt;a&lt;/b&gt; с работой &lt;b&gt;b, a раньше b - true&lt;br&gt;&amp;nbsp;&lt;/b&gt;" style="text;strokeColor=none;align=center;fillColor=none;html=1;verticalAlign=middle;whiteSpace=wrap;rounded=0;" vertex="1" parent="1">
          <mxGeometry x="90" y="20" width="330" height="30" as="geometry" />
        </mxCell>
        <mxCell id="wCVo80VKMC9zGzPq1CvK-4" style="edgeStyle=orthogonalEdgeStyle;rounded=0;orthogonalLoop=1;jettySize=auto;html=1;entryX=0.5;entryY=0;entryDx=0;entryDy=0;" edge="1" parent="1" source="wCVo80VKMC9zGzPq1CvK-2" target="wCVo80VKMC9zGzPq1CvK-3">
          <mxGeometry relative="1" as="geometry">
            <Array as="points" />
          </mxGeometry>
        </mxCell>
        <mxCell id="wCVo80VKMC9zGzPq1CvK-6" value="Yes" style="edgeLabel;html=1;align=center;verticalAlign=middle;resizable=0;points=[];" vertex="1" connectable="0" parent="wCVo80VKMC9zGzPq1CvK-4">
          <mxGeometry x="-0.129" y="1" relative="1" as="geometry">
            <mxPoint as="offset" />
          </mxGeometry>
        </mxCell>
        <mxCell id="wCVo80VKMC9zGzPq1CvK-7" style="edgeStyle=orthogonalEdgeStyle;rounded=0;orthogonalLoop=1;jettySize=auto;html=1;exitX=0.5;exitY=1;exitDx=0;exitDy=0;entryX=0.5;entryY=0;entryDx=0;entryDy=0;" edge="1" parent="1" source="wCVo80VKMC9zGzPq1CvK-2" target="wCVo80VKMC9zGzPq1CvK-5">
          <mxGeometry relative="1" as="geometry" />
        </mxCell>
        <mxCell id="wCVo80VKMC9zGzPq1CvK-8" value="No" style="edgeLabel;html=1;align=center;verticalAlign=middle;resizable=0;points=[];" vertex="1" connectable="0" parent="wCVo80VKMC9zGzPq1CvK-7">
          <mxGeometry x="-0.2" y="-2" relative="1" as="geometry">
            <mxPoint as="offset" />
          </mxGeometry>
        </mxCell>
        <mxCell id="wCVo80VKMC9zGzPq1CvK-2" value="&lt;div style=&quot;background-color:#1e1f22;color:#bcbec4&quot;&gt;&lt;pre style=&quot;font-family:&#39;JetBrains Mono&#39;,monospace;font-size:9,8pt;&quot;&gt;aHours &amp;lt; bHours&lt;/pre&gt;&lt;/div&gt;" style="rhombus;whiteSpace=wrap;html=1;" vertex="1" parent="1">
          <mxGeometry x="150" y="590" width="150" height="80" as="geometry" />
        </mxCell>
        <mxCell id="wCVo80VKMC9zGzPq1CvK-3" value="earler = true" style="rounded=1;whiteSpace=wrap;html=1;" vertex="1" parent="1">
          <mxGeometry x="464" y="990" width="120" height="60" as="geometry" />
        </mxCell>
        <mxCell id="wCVo80VKMC9zGzPq1CvK-13" value="" style="edgeStyle=orthogonalEdgeStyle;rounded=0;orthogonalLoop=1;jettySize=auto;html=1;" edge="1" parent="1" source="wCVo80VKMC9zGzPq1CvK-5" target="wCVo80VKMC9zGzPq1CvK-12">
          <mxGeometry relative="1" as="geometry" />
        </mxCell>
        <mxCell id="wCVo80VKMC9zGzPq1CvK-15" value="No" style="edgeLabel;html=1;align=center;verticalAlign=middle;resizable=0;points=[];" vertex="1" connectable="0" parent="wCVo80VKMC9zGzPq1CvK-13">
          <mxGeometry x="-0.0947" y="1" relative="1" as="geometry">
            <mxPoint as="offset" />
          </mxGeometry>
        </mxCell>
        <mxCell id="wCVo80VKMC9zGzPq1CvK-16" value="Yes" style="edgeLabel;html=1;align=center;verticalAlign=middle;resizable=0;points=[];" vertex="1" connectable="0" parent="wCVo80VKMC9zGzPq1CvK-13">
          <mxGeometry x="-0.0526" y="2" relative="1" as="geometry">
            <mxPoint as="offset" />
          </mxGeometry>
        </mxCell>
        <mxCell id="wCVo80VKMC9zGzPq1CvK-5" value="(aHours == bHours)" style="rhombus;whiteSpace=wrap;html=1;" vertex="1" parent="1">
          <mxGeometry x="157.5" y="720" width="135" height="80" as="geometry" />
        </mxCell>
        <mxCell id="wCVo80VKMC9zGzPq1CvK-9" value="earler = true" style="rounded=1;whiteSpace=wrap;html=1;" vertex="1" parent="1">
          <mxGeometry x="165" y="990" width="120" height="60" as="geometry" />
        </mxCell>
        <mxCell id="wCVo80VKMC9zGzPq1CvK-18" value="" style="edgeStyle=orthogonalEdgeStyle;rounded=0;orthogonalLoop=1;jettySize=auto;html=1;" edge="1" parent="1" source="wCVo80VKMC9zGzPq1CvK-12" target="wCVo80VKMC9zGzPq1CvK-9">
          <mxGeometry relative="1" as="geometry" />
        </mxCell>
        <mxCell id="wCVo80VKMC9zGzPq1CvK-19" value="Yes" style="edgeLabel;html=1;align=center;verticalAlign=middle;resizable=0;points=[];" vertex="1" connectable="0" parent="wCVo80VKMC9zGzPq1CvK-18">
          <mxGeometry x="-0.1714" relative="1" as="geometry">
            <mxPoint as="offset" />
          </mxGeometry>
        </mxCell>
        <mxCell id="wCVo80VKMC9zGzPq1CvK-21" style="edgeStyle=orthogonalEdgeStyle;rounded=0;orthogonalLoop=1;jettySize=auto;html=1;entryX=0.5;entryY=0;entryDx=0;entryDy=0;" edge="1" parent="1" source="wCVo80VKMC9zGzPq1CvK-12" target="wCVo80VKMC9zGzPq1CvK-20">
          <mxGeometry relative="1" as="geometry" />
        </mxCell>
        <mxCell id="wCVo80VKMC9zGzPq1CvK-22" value="No" style="edgeLabel;html=1;align=center;verticalAlign=middle;resizable=0;points=[];" vertex="1" connectable="0" parent="wCVo80VKMC9zGzPq1CvK-21">
          <mxGeometry x="-0.4333" y="-3" relative="1" as="geometry">
            <mxPoint as="offset" />
          </mxGeometry>
        </mxCell>
        <mxCell id="wCVo80VKMC9zGzPq1CvK-12" value="aMinutes &amp;lt; bMinutes" style="rhombus;whiteSpace=wrap;html=1;" vertex="1" parent="1">
          <mxGeometry x="155" y="850" width="140" height="90" as="geometry" />
        </mxCell>
        <mxCell id="wCVo80VKMC9zGzPq1CvK-20" value="earler = false" style="rounded=1;whiteSpace=wrap;html=1;" vertex="1" parent="1">
          <mxGeometry x="320" y="990" width="120" height="60" as="geometry" />
        </mxCell>
        <mxCell id="wCVo80VKMC9zGzPq1CvK-25" style="edgeStyle=orthogonalEdgeStyle;rounded=0;orthogonalLoop=1;jettySize=auto;html=1;entryX=0.5;entryY=0;entryDx=0;entryDy=0;" edge="1" parent="1" source="wCVo80VKMC9zGzPq1CvK-23" target="wCVo80VKMC9zGzPq1CvK-24">
          <mxGeometry relative="1" as="geometry" />
        </mxCell>
        <mxCell id="wCVo80VKMC9zGzPq1CvK-26" value="Yes" style="edgeLabel;html=1;align=center;verticalAlign=middle;resizable=0;points=[];" vertex="1" connectable="0" parent="wCVo80VKMC9zGzPq1CvK-25">
          <mxGeometry x="-0.0419" y="1" relative="1" as="geometry">
            <mxPoint as="offset" />
          </mxGeometry>
        </mxCell>
        <mxCell id="wCVo80VKMC9zGzPq1CvK-42" style="edgeStyle=orthogonalEdgeStyle;rounded=0;orthogonalLoop=1;jettySize=auto;html=1;entryX=0.5;entryY=0;entryDx=0;entryDy=0;exitX=1;exitY=0.5;exitDx=0;exitDy=0;" edge="1" parent="1" source="wCVo80VKMC9zGzPq1CvK-23" target="wCVo80VKMC9zGzPq1CvK-27">
          <mxGeometry relative="1" as="geometry" />
        </mxCell>
        <mxCell id="wCVo80VKMC9zGzPq1CvK-43" value="No" style="edgeLabel;html=1;align=center;verticalAlign=middle;resizable=0;points=[];" vertex="1" connectable="0" parent="wCVo80VKMC9zGzPq1CvK-42">
          <mxGeometry x="0.3447" y="-1" relative="1" as="geometry">
            <mxPoint as="offset" />
          </mxGeometry>
        </mxCell>
        <mxCell id="wCVo80VKMC9zGzPq1CvK-23" value="aYear &amp;lt; bYear" style="rhombus;whiteSpace=wrap;html=1;" vertex="1" parent="1">
          <mxGeometry x="24.369999999999997" y="80" width="102.5" height="60" as="geometry" />
        </mxCell>
        <mxCell id="wCVo80VKMC9zGzPq1CvK-24" value="earler = true" style="rounded=1;whiteSpace=wrap;html=1;" vertex="1" parent="1">
          <mxGeometry x="19.999999999999993" y="330" width="111.25" height="30" as="geometry" />
        </mxCell>
        <mxCell id="wCVo80VKMC9zGzPq1CvK-31" style="edgeStyle=orthogonalEdgeStyle;rounded=0;orthogonalLoop=1;jettySize=auto;html=1;entryX=0.5;entryY=0;entryDx=0;entryDy=0;exitX=1;exitY=0.5;exitDx=0;exitDy=0;" edge="1" parent="1" source="wCVo80VKMC9zGzPq1CvK-27" target="wCVo80VKMC9zGzPq1CvK-30">
          <mxGeometry relative="1" as="geometry">
            <Array as="points">
              <mxPoint x="250" y="180" />
            </Array>
          </mxGeometry>
        </mxCell>
        <mxCell id="wCVo80VKMC9zGzPq1CvK-32" value="Yes" style="edgeLabel;html=1;align=center;verticalAlign=middle;resizable=0;points=[];" vertex="1" connectable="0" parent="wCVo80VKMC9zGzPq1CvK-31">
          <mxGeometry x="-0.3382" y="-1" relative="1" as="geometry">
            <mxPoint as="offset" />
          </mxGeometry>
        </mxCell>
        <mxCell id="wCVo80VKMC9zGzPq1CvK-27" value="aYear == bYear" style="rhombus;whiteSpace=wrap;html=1;" vertex="1" parent="1">
          <mxGeometry x="111.87" y="150" width="102.5" height="60" as="geometry" />
        </mxCell>
        <mxCell id="wCVo80VKMC9zGzPq1CvK-34" value="" style="edgeStyle=orthogonalEdgeStyle;rounded=0;orthogonalLoop=1;jettySize=auto;html=1;" edge="1" parent="1" source="wCVo80VKMC9zGzPq1CvK-30" target="wCVo80VKMC9zGzPq1CvK-33">
          <mxGeometry relative="1" as="geometry" />
        </mxCell>
        <mxCell id="wCVo80VKMC9zGzPq1CvK-35" value="Yes&lt;br&gt;" style="edgeLabel;html=1;align=center;verticalAlign=middle;resizable=0;points=[];" vertex="1" connectable="0" parent="wCVo80VKMC9zGzPq1CvK-34">
          <mxGeometry x="0.2" y="-1" relative="1" as="geometry">
            <mxPoint as="offset" />
          </mxGeometry>
        </mxCell>
        <mxCell id="wCVo80VKMC9zGzPq1CvK-37" style="edgeStyle=orthogonalEdgeStyle;rounded=0;orthogonalLoop=1;jettySize=auto;html=1;entryX=0.5;entryY=0;entryDx=0;entryDy=0;" edge="1" parent="1" source="wCVo80VKMC9zGzPq1CvK-30" target="wCVo80VKMC9zGzPq1CvK-36">
          <mxGeometry relative="1" as="geometry">
            <Array as="points">
              <mxPoint x="365" y="225" />
            </Array>
          </mxGeometry>
        </mxCell>
        <mxCell id="wCVo80VKMC9zGzPq1CvK-38" value="No" style="edgeLabel;html=1;align=center;verticalAlign=middle;resizable=0;points=[];" vertex="1" connectable="0" parent="wCVo80VKMC9zGzPq1CvK-37">
          <mxGeometry x="-0.3111" y="-1" relative="1" as="geometry">
            <mxPoint as="offset" />
          </mxGeometry>
        </mxCell>
        <mxCell id="wCVo80VKMC9zGzPq1CvK-30" value="aMonth &amp;lt; bMonth" style="rhombus;whiteSpace=wrap;html=1;" vertex="1" parent="1">
          <mxGeometry x="190" y="210" width="120" height="70" as="geometry" />
        </mxCell>
        <mxCell id="wCVo80VKMC9zGzPq1CvK-33" value="earler = true" style="rounded=1;whiteSpace=wrap;html=1;" vertex="1" parent="1">
          <mxGeometry x="226.87" y="340" width="100" height="40" as="geometry" />
        </mxCell>
        <mxCell id="wCVo80VKMC9zGzPq1CvK-40" style="edgeStyle=orthogonalEdgeStyle;rounded=0;orthogonalLoop=1;jettySize=auto;html=1;entryX=0.5;entryY=0;entryDx=0;entryDy=0;exitX=1;exitY=0.5;exitDx=0;exitDy=0;" edge="1" parent="1" source="wCVo80VKMC9zGzPq1CvK-36" target="wCVo80VKMC9zGzPq1CvK-39">
          <mxGeometry relative="1" as="geometry">
            <Array as="points">
              <mxPoint x="442" y="285" />
            </Array>
          </mxGeometry>
        </mxCell>
        <mxCell id="wCVo80VKMC9zGzPq1CvK-45" value="Yes" style="edgeLabel;html=1;align=center;verticalAlign=middle;resizable=0;points=[];" vertex="1" connectable="0" parent="wCVo80VKMC9zGzPq1CvK-40">
          <mxGeometry x="0.2" y="-1" relative="1" as="geometry">
            <mxPoint as="offset" />
          </mxGeometry>
        </mxCell>
        <mxCell id="wCVo80VKMC9zGzPq1CvK-36" value="aMonth == bMonth" style="rhombus;whiteSpace=wrap;html=1;" vertex="1" parent="1">
          <mxGeometry x="300" y="250" width="130" height="70" as="geometry" />
        </mxCell>
        <mxCell id="wCVo80VKMC9zGzPq1CvK-48" style="edgeStyle=orthogonalEdgeStyle;rounded=0;orthogonalLoop=1;jettySize=auto;html=1;entryX=0.5;entryY=0;entryDx=0;entryDy=0;exitX=1;exitY=0.5;exitDx=0;exitDy=0;" edge="1" parent="1" source="wCVo80VKMC9zGzPq1CvK-39" target="wCVo80VKMC9zGzPq1CvK-47">
          <mxGeometry relative="1" as="geometry">
            <Array as="points">
              <mxPoint x="507" y="370" />
            </Array>
          </mxGeometry>
        </mxCell>
        <mxCell id="wCVo80VKMC9zGzPq1CvK-49" value="No" style="edgeLabel;html=1;align=center;verticalAlign=middle;resizable=0;points=[];" vertex="1" connectable="0" parent="wCVo80VKMC9zGzPq1CvK-48">
          <mxGeometry x="0.1071" relative="1" as="geometry">
            <mxPoint as="offset" />
          </mxGeometry>
        </mxCell>
        <mxCell id="wCVo80VKMC9zGzPq1CvK-39" value="aDay &amp;lt; bDay" style="rhombus;whiteSpace=wrap;html=1;" vertex="1" parent="1">
          <mxGeometry x="386.87" y="340" width="110" height="60" as="geometry" />
        </mxCell>
        <mxCell id="wCVo80VKMC9zGzPq1CvK-51" style="edgeStyle=orthogonalEdgeStyle;rounded=0;orthogonalLoop=1;jettySize=auto;html=1;entryX=0.5;entryY=0;entryDx=0;entryDy=0;exitX=1;exitY=0.5;exitDx=0;exitDy=0;" edge="1" parent="1" source="wCVo80VKMC9zGzPq1CvK-47" target="wCVo80VKMC9zGzPq1CvK-50">
          <mxGeometry relative="1" as="geometry" />
        </mxCell>
        <mxCell id="wCVo80VKMC9zGzPq1CvK-52" value="Yes" style="edgeLabel;html=1;align=center;verticalAlign=middle;resizable=0;points=[];" vertex="1" connectable="0" parent="wCVo80VKMC9zGzPq1CvK-51">
          <mxGeometry x="0.0769" y="-1" relative="1" as="geometry">
            <mxPoint as="offset" />
          </mxGeometry>
        </mxCell>
        <mxCell id="wCVo80VKMC9zGzPq1CvK-47" value="aDay == bDay" style="rhombus;whiteSpace=wrap;html=1;" vertex="1" parent="1">
          <mxGeometry x="456.87" y="410" width="100" height="70" as="geometry" />
        </mxCell>
        <mxCell id="wCVo80VKMC9zGzPq1CvK-54" style="edgeStyle=orthogonalEdgeStyle;rounded=0;orthogonalLoop=1;jettySize=auto;html=1;entryX=0.5;entryY=0;entryDx=0;entryDy=0;exitX=1;exitY=0.5;exitDx=0;exitDy=0;" edge="1" parent="1" source="wCVo80VKMC9zGzPq1CvK-50">
          <mxGeometry relative="1" as="geometry">
            <mxPoint x="660" y="560" as="targetPoint" />
            <Array as="points">
              <mxPoint x="660" y="525" />
            </Array>
          </mxGeometry>
        </mxCell>
        <mxCell id="wCVo80VKMC9zGzPq1CvK-55" value="No" style="edgeLabel;html=1;align=center;verticalAlign=middle;resizable=0;points=[];" vertex="1" connectable="0" parent="wCVo80VKMC9zGzPq1CvK-54">
          <mxGeometry x="0.0182" y="1" relative="1" as="geometry">
            <mxPoint as="offset" />
          </mxGeometry>
        </mxCell>
        <mxCell id="wCVo80VKMC9zGzPq1CvK-50" value="aHours &amp;lt; bHours" style="rhombus;whiteSpace=wrap;html=1;" vertex="1" parent="1">
          <mxGeometry x="520" y="490" width="120" height="70" as="geometry" />
        </mxCell>
        <mxCell id="wCVo80VKMC9zGzPq1CvK-57" style="edgeStyle=orthogonalEdgeStyle;rounded=0;orthogonalLoop=1;jettySize=auto;html=1;entryX=0.5;entryY=0;entryDx=0;entryDy=0;exitX=1;exitY=0.5;exitDx=0;exitDy=0;" edge="1" parent="1" source="wCVo80VKMC9zGzPq1CvK-53" target="wCVo80VKMC9zGzPq1CvK-56">
          <mxGeometry relative="1" as="geometry" />
        </mxCell>
        <mxCell id="wCVo80VKMC9zGzPq1CvK-58" value="Yes" style="edgeLabel;html=1;align=center;verticalAlign=middle;resizable=0;points=[];" vertex="1" connectable="0" parent="wCVo80VKMC9zGzPq1CvK-57">
          <mxGeometry x="0.3143" y="1" relative="1" as="geometry">
            <mxPoint as="offset" />
          </mxGeometry>
        </mxCell>
        <mxCell id="wCVo80VKMC9zGzPq1CvK-53" value="aHours == bHours" style="rhombus;whiteSpace=wrap;html=1;" vertex="1" parent="1">
          <mxGeometry x="600" y="560" width="120" height="80" as="geometry" />
        </mxCell>
        <mxCell id="wCVo80VKMC9zGzPq1CvK-56" value="aMinutes &amp;lt; bMinutes" style="rhombus;whiteSpace=wrap;html=1;" vertex="1" parent="1">
          <mxGeometry x="670" y="650" width="140" height="90" as="geometry" />
        </mxCell>
      </root>
    </mxGraphModel>
  </diagram>
</mxfile>
